<svg xmlns="http://www.w3.org/2000/svg" version="1.1" xmlns:xlink="http://www.w3.org/1999/xlink" xmlns:svgjs="http://svgjs.dev/svgjs" viewBox="0 0 2.5609913857546367 2.442221513416897"><g transform="matrix(1,0,0,1,1.282065935993323,2.4213248049402427)"><g><path d=" M -0.7378595963011075 -1.487926046517536 Q -0.7698587299259052 -1.4746791106543884 -0.7997878126213085 -1.4781034896508947 Q -0.8297168953167117 -1.481527868647401 -0.8526492803440067 -1.500925984972444 L -0.7816389471209098 -1.573660124656259 Q -0.769808088676934 -1.5651004276126361 -0.7562174092403957 -1.5675333851653397 Q -0.7426267298038575 -1.569966342718043 -0.7310408333306153 -1.5818334918243497 Q -0.7220711070287504 -1.5910209621002 -0.7206668793009336 -1.6001177057202232 Q -0.7192626515731168 -1.6092144493402463 -0.7253876317570169 -1.615194266874823 Q -0.733426668248386 -1.6230427773889546 -0.7458507685692775 -1.6179755043337085 Q -0.758274868890169 -1.6129082312784622 -0.7826767496113791 -1.597104097570225 Q -0.8096948005039665 -1.5786202850315316 -0.8303865132628143 -1.5689139135104466 Q -0.8510782260216623 -1.5592075419893616 -0.8751190974918258 -1.5606217220362708 Q -0.8991599689619894 -1.56203590208318 -0.9213630221286278 -1.5837127406460203 Q -0.9405035852033159 -1.602399670441572 -0.9459164992042154 -1.6278719876363006 Q -0.9513294132051149 -1.6533443048310292 -0.9408956071956358 -1.6824116223613168 Q -0.9304618011861567 -1.7114789398916042 -0.90280514508874 -1.7398069732421426 Q -0.8616938995385259 -1.7819162120064567 -0.8174765598754674 -1.785851437301368 Q -0.7732592202124089 -1.789786662596279 -0.7358344432418473 -1.7607257787710455 L -0.8019861747181007 -1.6929681854866494 Q -0.8141907717579875 -1.7011450712687786 -0.8266556990740013 -1.699482272571854 Q -0.8391206263900151 -1.6978194738749293 -0.8507065228632571 -1.6859523247686226 Q -0.859676249165122 -1.6767648544927722 -0.8609026802605662 -1.6686160663609009 Q -0.8621291113560102 -1.6604672782290295 -0.8560041311721099 -1.6544874606944528 Q -0.8483479059422347 -1.6470126887762322 -0.8357323999905963 -1.651893092533523 Q -0.8231168940389579 -1.6567734962908136 -0.7998453017710637 -1.6721857460719742 Q -0.7720707010210716 -1.6906786312762503 -0.7508093077027743 -1.700202669832171 Q -0.7295479143844772 -1.709726708388092 -0.7045590874261619 -1.70813473170881 Q -0.6795702604678466 -1.706542755029528 -0.6562187735167271 -1.6837447006789548 Q -0.6374610217035326 -1.665431509479314 -0.6331829324887404 -1.6399455832862113 Q -0.6289048432739481 -1.6144596570931087 -0.6399128661756678 -1.5859529474566878 Q -0.6509208890773875 -1.5574462378202667 -0.6774563293870711 -1.5302666382542096 Q -0.7058604626763099 -1.5011729823806834 -0.7378595963011075 -1.487926046517536 Z M -0.5626482766583182 -1.917886056690097 Q -0.5591890830141969 -1.956374254369158 -0.5385422981053215 -1.9842040172890363 Q -0.5178955131964462 -2.0120337802089145 -0.48436889877731193 -2.0247156629788625 Q -0.45534585942940464 -2.0356940092573246 -0.4299756936187712 -2.032134709924455 Q -0.4046055278081378 -2.0285754105915847 -0.3857144000518983 -2.0134134007611753 L -0.400478382978106 -2.052444384711809 L -0.30240052587138483 -2.089543623859716 L -0.1962134179021211 -1.8088207777532332 L -0.29429127500884233 -1.7717215386053264 L -0.30905525793505007 -1.8107525225559604 Q -0.31318240276508186 -1.7868835484357362 -0.3300958029009686 -1.767329934266141 Q -0.3470092030368553 -1.747776320096546 -0.37553184515462623 -1.736987255650471 Q -0.4090584595737605 -1.7243053728805233 -0.4429549727497455 -1.7315034160701883 Q -0.47685148592573035 -1.7387014592598533 -0.5050119586963917 -1.7655151001135838 Q -0.533172431467053 -1.792328740967314 -0.5496399508847463 -1.835863299989175 Q -0.5661074703024396 -1.879397859011036 -0.5626482766583182 -1.917886056690097 Z M -0.37833014395160836 -1.9492831107797994 Q -0.39895959904463585 -1.959211610858601 -0.4204766799404982 -1.9510724920659481 Q -0.44249415806649683 -1.9427440914409078 -0.4512325818526384 -1.9219928027825186 Q -0.4599710056387801 -1.9012415141241292 -0.44956050485747967 -1.8737196664666311 Q -0.43933928590856663 -1.846698216039269 -0.4188653885144137 -1.8364248764292057 Q -0.39839149112026073 -1.8261515368191423 -0.3763740129942621 -1.8344799374441827 Q -0.35485693209839975 -1.8426190562368356 -0.3459629506133836 -1.8637151844264865 Q -0.3370689691283675 -1.8848113126161377 -0.3474794699096678 -1.912333160273636 Q -0.3577006888585809 -1.939354610700998 -0.37833014395160836 -1.9492831107797994 Z M 0.054327463730247716 -2.2127393455742235 L 0.05377319524560503 -1.8168397335682924 L -0.05108670198839841 -1.8169865398155762 L -0.05053243350375574 -2.2128861518215075 L 0.054327463730247716 -2.2127393455742235 Z M 0.2780070603741437 -2.0229042466025615 Q 0.3078669629331154 -2.0491460918915023 0.34666793800527845 -2.0551358760862275 Q 0.3854689130774416 -2.0611256602809527 0.4272722356965403 -2.046149471079305 Q 0.48116326606092064 -2.026842817530193 0.5073745369392075 -1.9842072008441982 Q 0.5335858078174945 -1.9415715841582037 0.5252167705744593 -1.8848987064685656 L 0.42045663678201906 -1.9224293974799236 Q 0.4213148367693304 -1.953378242656792 0.39512480332122035 -1.9627609154096315 Q 0.3764895872139113 -1.9694370479453058 0.36015771725052725 -1.9579549603302806 Q 0.34382584728714316 -1.9464728727152556 0.3331801224329599 -1.9167572578414382 Q 0.32253439757877667 -1.8870416429676211 0.3277694526517832 -1.8675489794853624 Q 0.3330045077247898 -1.8480563160031034 0.35163972383209885 -1.8413801834674293 Q 0.3783334117695956 -1.831817074700112 0.39681951888544265 -1.8564506593702617 L 0.5015796526778828 -1.8189199683589037 Q 0.47223756289508245 -1.7703290577667148 0.42482506031566775 -1.7537852719497686 Q 0.37741255773625304 -1.7372414861328223 0.3235215273718728 -1.7565481396819342 Q 0.28171820475277404 -1.771524328883582 0.2555477506940487 -1.800790358945928 Q 0.2293772966353234 -1.8300563890082742 0.22297407595845045 -1.8692896273396082 Q 0.2165708552815775 -1.9085228656709425 0.23244922455561357 -1.9528444607369748 Q 0.24814715781517194 -1.9966624013136205 0.2780070603741437 -2.0229042466025615 Z M 0.6242257764883753 -1.6091358671006757 Q 0.6120396885117787 -1.6474488334577284 0.6219797402820854 -1.686484777096939 Q 0.6319197920523919 -1.7255207207361496 0.6649755852532516 -1.7590444576379627 Q 0.6976557444404652 -1.7921872429840735 0.7367385902220072 -1.802487184579355 Q 0.7758214360035491 -1.8127871261746364 0.8143019049353749 -1.8011407687167533 Q 0.8527823738672007 -1.7894944112588704 0.8847823045462043 -1.757941154112595 Q 0.9167822352252079 -1.72638789696632 0.9289683232018044 -1.6880749306092673 Q 0.9411544111784009 -1.6497619642522148 0.9314048351859455 -1.610538203606181 Q 0.9216552591934901 -1.5713144429601473 0.8889751000062767 -1.5381716576140365 Q 0.856294940819063 -1.5050288722679257 0.817024278030698 -1.494538454894793 Q 0.777753615242333 -1.4840480375216605 0.739082670532656 -1.4958822119863666 Q 0.700411725822979 -1.5077163864510728 0.6684117951439753 -1.5392696435973479 Q 0.6364118644649718 -1.570822900743623 0.6242257764883753 -1.6091358671006757 Z M 0.769821596445641 -1.5899195005809237 Q 0.7917546016436647 -1.591208587654579 0.8131657404214943 -1.612922826329617 Q 0.8345768791993239 -1.634637065004655 0.8353697318268912 -1.6563955470509966 Q 0.8361625844544586 -1.6781540290973378 0.8209245222263617 -1.6931793896431833 Q 0.8056864599982647 -1.7082047501890285 0.7841317475849153 -1.7069183218864015 Q 0.7625770351715659 -1.7056318935837742 0.7411658963937363 -1.6839176549087362 Q 0.7193791236022606 -1.6618224646779955 0.7180148436411395 -1.6406274336521234 Q 0.7166505636800186 -1.6194324026262512 0.7322695774638179 -1.60403140806676 Q 0.7478885912476173 -1.5886304135072684 0.769821596445641 -1.5899195005809237 Z" fill="#212121" fill-rule="nonzero"></path></g><g clip-path="url(&quot;#SvgjsClipPath1009&quot;)"><g clip-path="url(&quot;#SvgjsClipPath1008&quot;)"><path d=" M 4.440892098500626e-16 -1.5337778447637611 C -0.1785275421684952 -1.5337778447637611 -0.34974306100092184 -1.4628580547746242 -0.4759810966968321 -1.3366200190787134 C -0.6022191323927428 -1.2103819833828027 -0.6731389223818801 -1.0391664645503762 -0.6731389223818801 -0.8606389223818808 C -0.6731389223818801 -0.682111380213385 -0.6022191323927428 -0.5108958613809584 -0.47598109669683264 -0.3846578256850479 C -0.34974306100092206 -0.25841978998913717 -0.1785275421684952 -0.1875 4.440892098500626e-16 -0.1875 C 0.17852846729681326 -0.18749698220091227 0.34974573953499666 -0.2584158030899788 0.4759844294134491 -0.3846544929684317 C 0.6022231192919015 -0.5108931828468846 0.6731419401809683 -0.6821104550850674 0.6731389223818806 -0.8606389223818806 C 0.673138922381881 -1.0391664645503762 0.6022191323927436 -1.2103819833828027 0.47598109669683286 -1.3366200190787134 C 0.34974306100092256 -1.4628580547746242 0.1785275421684961 -1.5337778447637611 4.440892098500626e-16 -1.5337778447637611 Z M 4.440892098500626e-16 -0.4599642433292177 C -0.10662962817655763 -0.45996122556649 -0.20889301687666167 -0.5023175650668121 -0.28429261698349917 -0.5777150313233568 C -0.35969221709033694 -0.6531124975799014 -0.4020514507249845 -0.7553746875143068 -0.4020514506822812 -0.8620043157335681 C -0.40204516697462506 -1.0840423136914303 -0.22204937624052978 -1.2640381044276463 -0.000011378280299068066 -1.2640443881379182 C 0.10661627849998767 -1.2640443881379184 0.20887674405821854 -1.2216867164091123 0.28427388322791636 -1.1462895772394148 C 0.3596710223976137 -1.0708924380697173 0.4020286941264203 -0.9686319725114861 0.4020286941264203 -0.8620043157335681 C 0.4020317118891753 -0.7553777052640426 0.35967657116829044 -0.6531172106734418 0.2842812387528004 -0.5777197444076211 C 0.20888590633730997 -0.5023222781418002 0.10662661051242783 -0.4599642432865394 9.903189379656396e-14 -0.4599642433292177 Z" fill="#212121" transform="matrix(1,0,0,1,0,0)" fill-rule="evenodd"></path></g><g clip-path="url(&quot;#SvgjsClipPath1008&quot;)"><path d=" M 0.00261700392406794 -1.5337095750961767 C 0.0017408765234018242 -1.5337095750961767 0.0008761274006665598 -1.5337778447637611 4.440892098500626e-16 -1.5337778447637611 C -0.1785275421684952 -1.5337778447637611 -0.34974306100092184 -1.4628580547746242 -0.4759810966968321 -1.3366200190787134 C -0.6022191323927428 -1.2103819833828027 -0.6731389223818801 -1.0391664645503762 -0.6731389223818801 -0.8606389223818808 C -0.6731389223818801 -0.682111380213385 -0.6022191323927428 -0.5108958613809584 -0.47598109669683264 -0.3846578256850479 C -0.34974306100092206 -0.25841978998913717 -0.1785275421684952 -0.1875 4.440892098500626e-16 -0.1875 C 0.00046650939516001966 -0.1875 0.0009102622344585587 -0.1875 0.001365393351687616 -0.1875 L 4.440892098500626e-16 -0.19287054718330365 C -0.46786341023361266 -0.4626381386429388 -0.4020514506822807 -0.8646782110472891 -0.4020514506822807 -0.8646782110472891 L -0.4019831810146964 -0.8646782110472891 C -0.40053833777716596 -1.0856595144594945 -0.2209974046067431 -1.264041725574815 -0.000011378277936735515 -1.2640557664158492 C 0.22097464805087563 -1.2640417255748186 0.4005155812213016 -1.085659514459501 0.40196042445883584 -0.8646782110472893 L 0.4030982522519083 -0.8646782110472893 C 0.4069441101924943 -0.8924639657541273 0.45131939412233424 -1.2739321116597213 0.00261700392406794 -1.5337095750961767 Z" fill="#769687" transform="matrix(1,0,0,1,0,0)" fill-rule="evenodd"></path></g></g></g><defs><clipPath id="SvgjsClipPath1009"><path d=" M -0.6731389223818806 -1.5337778447637611 h 1.3462778447637611 v 1.3462778447637611 h -1.3462778447637611 Z"></path></clipPath><clipPath id="SvgjsClipPath1008"><path d=" M -0.6731389223818806 -1.5337778447637611 L 0.6731389223818806 -1.5337778447637611 L 0.6731389223818806 -0.1875 L -0.6731389223818806 -0.1875 Z"></path></clipPath></defs></svg>